PathFileType	4	(X/Y/Z)	output.trc
DataRate	CameraRate	NumFrames	NumMarkers	Units	OrigDataRate	OrigDataStartFrame	OrigNumFrames
100	100	12	23	m	100	4402	5030
Frame#	Time	C7			T8			EL			EM			US			RS			AA			Fore_Clus_1			Fore_Clus_2			Fore_Clus_3			Fore_Clus_4			Hum_Clus_1			Hum_Clus_2			Hum_Clus_3			Hum_Clus_4			Thor_Clus_1			Thor_Clus_2			Thor_Clus_3			Thor_Clus_4			IJ			PX			GH			Thor_Clus_5		
		X1	Y1	Z1	X2	Y2	Z2	X3	Y3	Z3	X4	Y4	Z4	X5	Y5	Z5	X6	Y6	Z6	X7	Y7	Z7	X8	Y8	Z8	X9	Y9	Z9	X10	Y10	Z10	X11	Y11	Z11	X12	Y12	Z12	X13	Y13	Z13	X14	Y14	Z14	X15	Y15	Z15	X16	Y16	Z16	X17	Y17	Z17	X18	Y18	Z18	X19	Y19	Z19	X20	Y20	Z20	X21	Y21	Z21	X22	Y22	Z22	X23	Y23	Z23
4401	44.010000	0.027520	1.366913	-0.065768	0.004687	1.170462	-0.114101	-0.282045	1.197734	-0.180127	-0.247035	1.155078	-0.191357	-0.450611	1.149022	-0.331196	-0.466117	1.113835	-0.301370	-0.140672	1.293910	-0.013535	-0.437310	1.184611	-0.284156	-0.479239	1.170186	-0.316688	-0.485991	1.149817	-0.298973	-0.448534	1.152421	-0.254879	-0.267378	1.257111	-0.114170	-0.226328	1.277474	-0.153017	-0.194535	1.317419	-0.115049	-0.224769	1.297122	-0.068730	0.087047	1.254990	0.069989	0.026083	1.208273	0.105301	0.043634	1.256045	0.078559	0.089355	1.205344	0.092783	0.043253	1.288098	0.016041	0.034988	1.089919	0.064137	-0.100439	1.298077	-0.022930	0.025252	1.230034	0.095011
4402	44.020000	0.027969	1.367055	-0.065611	0.004747	1.170688	-0.114101	-0.282634	1.200057	-0.180243	-0.248000	1.157100	-0.191487	-0.451603	1.153267	-0.331450	-0.467543	1.118266	-0.301633	-0.140425	1.294383	-0.013567	-0.438141	1.188680	-0.284262	-0.479836	1.174703	-0.316942	-0.487047	1.154402	-0.299277	-0.449529	1.156519	-0.255151	-0.267512	1.259199	-0.114178	-0.226210	1.279242	-0.153030	-0.194152	1.318962	-0.115059	-0.224474	1.298833	-0.068747	0.087140	1.254907	0.070136	0.026033	1.208327	0.105371	0.043737	1.256063	0.078646	0.089296	1.205265	0.092908	0.043462	1.288148	0.016156	0.034724	1.089954	0.064105	-0.100187	1.298709	-0.022950	0.025276	1.230078	0.095079
4403	44.030000	0.028422	1.367209	-0.065446	0.004803	1.170930	-0.114102	-0.283205	1.202346	-0.180337	-0.248944	1.159094	-0.191597	-0.452569	1.157435	-0.331656	-0.468924	1.122621	-0.301846	-0.140174	1.294870	-0.013590	-0.438691	1.192759	-0.284440	-0.480899	1.179247	-0.317018	-0.488071	1.158982	-0.299463	-0.450427	1.160569	-0.255386	-0.267574	1.261316	-0.114255	-0.226130	1.280937	-0.153071	-0.193706	1.320392	-0.115052	-0.224193	1.300530	-0.068772	0.087217	1.254825	0.070288	0.026010	1.208360	0.105411	0.043835	1.256106	0.078762	0.089256	1.205191	0.093017	0.043676	1.288206	0.016273	0.034461	1.089996	0.064067	-0.099926	1.299334	-0.022976	0.025281	1.230128	0.095154
4404	44.040000	0.028868	1.367358	-0.065286	0.004850	1.171166	-0.114099	-0.283759	1.204595	-0.180410	-0.249869	1.161056	-0.191689	-0.453501	1.161513	-0.331812	-0.470256	1.126882	-0.302011	-0.139925	1.295356	-0.013604	-0.439133	1.196780	-0.284744	-0.481271	1.183697	-0.317336	-0.488847	1.163499	-0.299709	-0.451435	1.164765	-0.255638	-0.267621	1.263352	-0.114283	-0.225932	1.282733	-0.153151	-0.193262	1.321858	-0.115155	-0.223889	1.302190	-0.068824	0.087314	1.254747	0.070444	0.025972	1.208418	0.105461	0.043951	1.256145	0.078868	0.089239	1.205117	0.093095	0.043887	1.288264	0.016388	0.034198	1.090041	0.064034	-0.099656	1.299946	-0.023010	0.025307	1.230179	0.095218
4405	44.050000	0.029319	1.367519	-0.065116	0.004900	1.171420	-0.114097	-0.284292	1.206793	-0.180463	-0.250768	1.162977	-0.191762	-0.454405	1.165491	-0.331923	-0.471543	1.131042	-0.302128	-0.139671	1.295854	-0.013612	-0.439729	1.200538	-0.284858	-0.482315	1.187980	-0.317510	-0.489732	1.167959	-0.299872	-0.452291	1.168674	-0.255769	-0.267602	1.265458	-0.114366	-0.225810	1.284357	-0.153188	-0.192773	1.323279	-0.115159	-0.223560	1.303887	-0.068878	0.087400	1.254682	0.070578	0.025954	1.208458	0.105515	0.044077	1.256188	0.078973	0.089197	1.205042	0.093194	0.044103	1.288330	0.016508	0.033939	1.090092	0.063995	-0.099378	1.300544	-0.023052	0.025324	1.230243	0.095280
4406	44.060000	0.029763	1.367676	-0.064950	0.004947	1.171665	-0.114090	-0.284806	1.208937	-0.180497	-0.251644	1.164854	-0.191821	-0.455276	1.169356	-0.331988	-0.472779	1.135087	-0.302198	-0.139419	1.296344	-0.013613	-0.440280	1.204305	-0.284874	-0.482754	1.192041	-0.317614	-0.490606	1.172144	-0.300019	-0.453149	1.172572	-0.255786	-0.267667	1.267480	-0.114379	-0.225645	1.286102	-0.153210	-0.192303	1.324648	-0.115229	-0.223249	1.305522	-0.068919	0.087505	1.254611	0.070707	0.025965	1.208510	0.105579	0.044193	1.256220	0.079073	0.089192	1.204974	0.093291	0.044317	1.288395	0.016627	0.033686	1.090145	0.063963	-0.099091	1.301122	-0.023105	0.025365	1.230290	0.095349
4407	44.070000	0.030203	1.367831	-0.064783	0.004997	1.171909	-0.114079	-0.285300	1.211021	-0.180513	-0.252493	1.166680	-0.191865	-0.456114	1.173099	-0.332010	-0.473966	1.139010	-0.302222	-0.139167	1.296829	-0.013609	-0.440822	1.207838	-0.284934	-0.483124	1.196017	-0.317672	-0.491473	1.176134	-0.299960	-0.454037	1.176148	-0.255871	-0.267674	1.269426	-0.114412	-0.225547	1.287699	-0.153281	-0.191887	1.325990	-0.115227	-0.222891	1.307043	-0.068953	0.087603	1.254545	0.070825	0.025937	1.208568	0.105620	0.044334	1.256264	0.079193	0.089184	1.204898	0.093386	0.044532	1.288460	0.016747	0.033441	1.090201	0.063934	-0.098797	1.301679	-0.023166	0.025421	1.230337	0.095430
4408	44.080000	0.030643	1.367988	-0.064614	0.005055	1.172156	-0.114067	-0.285773	1.213039	-0.180512	-0.253313	1.168451	-0.191895	-0.456922	1.176716	-0.331993	-0.475107	1.142805	-0.302201	-0.138911	1.297308	-0.013604	-0.441541	1.211314	-0.284801	-0.483918	1.199923	-0.317542	-0.492401	1.180069	-0.299885	-0.454876	1.179678	-0.255750	-0.267689	1.271253	-0.114363	-0.225477	1.289264	-0.153252	-0.191470	1.327255	-0.115217	-0.222654	1.308516	-0.068936	0.087689	1.254495	0.070959	0.025940	1.208603	0.105669	0.044452	1.256291	0.079271	0.089194	1.204814	0.093475	0.044749	1.288529	0.016869	0.033206	1.090260	0.063907	-0.098498	1.302212	-0.023233	0.025466	1.230386	0.095496
4409	44.090000	0.031072	1.368129	-0.064455	0.005113	1.172381	-0.114047	-0.286226	1.214989	-0.180495	-0.254106	1.170164	-0.191913	-0.457695	1.180198	-0.331937	-0.476198	1.146466	-0.302138	-0.138660	1.297766	-0.013596	-0.442093	1.214665	-0.284642	-0.484693	1.203669	-0.317455	-0.493183	1.183861	-0.299825	-0.455687	1.183009	-0.255763	-0.267697	1.272990	-0.114300	-0.225391	1.290730	-0.153320	-0.191182	1.328493	-0.115212	-0.222322	1.309878	-0.068917	0.087782	1.254414	0.071082	0.025920	1.208625	0.105710	0.044556	1.256296	0.079365	0.089174	1.204725	0.093568	0.044963	1.288591	0.016987	0.032983	1.090316	0.063894	-0.098193	1.302716	-0.023307	0.025506	1.230414	0.095563
4410	44.100000	0.031500	1.368273	-0.064291	0.005185	1.172609	-0.114026	-0.286656	1.216864	-0.180462	-0.254866	1.171814	-0.191917	-0.458439	1.183544	-0.331847	-0.477245	1.149991	-0.302035	-0.138404	1.298214	-0.013589	-0.442496	1.217961	-0.284626	-0.484946	1.207195	-0.317525	-0.493921	1.187603	-0.299758	-0.456392	1.186423	-0.255742	-0.267681	1.274631	-0.114162	-0.225346	1.292139	-0.153247	-0.190762	1.329650	-0.115161	-0.222060	1.311212	-0.068830	0.087891	1.254363	0.071189	0.025927	1.208629	0.105751	0.044657	1.256296	0.079436	0.089193	1.204627	0.093632	0.045180	1.288655	0.017109	0.032776	1.090375	0.063880	-0.097887	1.303193	-0.023383	0.025553	1.230422	0.095584
4411	44.110000	0.031917	1.368402	-0.064137	0.005262	1.172816	-0.113998	-0.287066	1.218666	-0.180415	-0.255596	1.173401	-0.191910	-0.459150	1.186749	-0.331723	-0.478244	1.153375	-0.301895	-0.138152	1.298638	-0.013583	-0.442874	1.221108	-0.284614	-0.485460	1.210727	-0.317437	-0.494593	1.191224	-0.299715	-0.457096	1.189731	-0.255693	-0.267664	1.276306	-0.114108	-0.225177	1.293553	-0.153232	-0.190309	1.330744	-0.115189	-0.221681	1.312554	-0.068828	0.087985	1.254273	0.071292	0.025916	1.208635	0.105793	0.044758	1.256304	0.079516	0.089178	1.204523	0.093717	0.045394	1.288713	0.017227	0.032583	1.090431	0.063880	-0.097581	1.303641	-0.023459	0.025599	1.230442	0.095645
4412	44.120000	0.032326	1.368523	-0.063988	0.005348	1.173011	-0.113966	-0.287454	1.220389	-0.180354	-0.256293	1.174922	-0.191891	-0.459830	1.189815	-0.331570	-0.479198	1.156619	-0.301720	-0.137901	1.299041	-0.013576	-0.443218	1.224157	-0.284477	-0.485831	1.214021	-0.317306	-0.495188	1.194719	-0.299608	-0.457616	1.193039	-0.255380	-0.267565	1.277983	-0.114113	-0.224974	1.294838	-0.153268	-0.189769	1.331828	-0.115255	-0.221324	1.313890	-0.068840	0.088100	1.254205	0.071382	0.025915	1.208656	0.105836	0.044840	1.256296	0.079580	0.089180	1.204430	0.093798	0.045607	1.288768	0.017343	0.032408	1.090485	0.063886	-0.097278	1.304058	-0.023532	0.025652	1.230481	0.095700
